<svg width="45" height="47" viewBox="0 0 45 47" fill="none" xmlns="http://www.w3.org/2000/svg">
<path d="M17.4219 5.07812C17.4219 5.67187 17.3047 6.22656 17.0703 6.74219C16.8516 7.25781 16.5469 7.71094 16.1562 8.10156C15.7812 8.47656 15.3281 8.78125 14.7969 9.01562C14.2812 9.23437 13.7344 9.34375 13.1562 9.34375C12.5469 9.34375 11.9766 9.23437 11.4453 9.01562C10.9297 8.78125 10.4766 8.47656 10.0859 8.10156C9.69531 7.71094 9.38281 7.25781 9.14844 6.74219C8.92969 6.22656 8.82031 5.67187 8.82031 5.07812C8.82031 4.5 8.92969 3.95312 9.14844 3.4375C9.38281 2.90625 9.69531 2.45312 10.0859 2.07812C10.4766 1.6875 10.9297 1.38281 11.4453 1.16406C11.9766 0.929688 12.5469 0.8125 13.1562 0.8125C13.7344 0.8125 14.2812 0.929688 14.7969 1.16406C15.3281 1.38281 15.7812 1.6875 16.1562 2.07812C16.5469 2.45312 16.8516 2.90625 17.0703 3.4375C17.3047 3.95312 17.4219 4.5 17.4219 5.07812ZM0.242188 46.5625V40.1172L3.78125 40.1641C4.64062 40.1641 5.4375 39.9844 6.17188 39.625C6.90625 39.2812 7.53906 38.8125 8.07031 38.2188C8.61719 37.6406 9.04688 36.9688 9.35938 36.2031C9.67188 35.4375 9.82812 34.6328 9.82812 33.7891V11.8984H16.3672V33.7891H16.3203C16.3047 34.9609 16.1406 36.0938 15.8281 37.1875C15.5312 38.2812 15.1016 39.2969 14.5391 40.2344C13.9766 41.1875 13.3047 42.0469 12.5234 42.8125C11.7422 43.5938 10.875 44.2578 9.92188 44.8047C8.98438 45.3672 7.97656 45.7969 6.89844 46.0938C5.80469 46.4062 4.67188 46.5625 3.5 46.5625H0.242188ZM27.6641 37H21.2188V1.91406H27.6641V24.0391L37.2031 11.9453H44.5625L36.2422 22.3984L44.5625 37H37.2031L32.1172 27.8828L27.6641 33.7891V37Z" fill="black"/>
</svg>
